<svg
  viewBox="0 0 20 20"
  xmlns="http://www.w3.org/2000/svg"
  fill="none"
  stroke="url('#myGradient')"
  stroke-width="1"
  stroke-linejoin="round"
  stroke-linecap="round"
>
  <!-- mask="url(#myMask)" -->
  <!-- clip-path="url(#test-clip)" -->
  <!-- stroke="#9ed" -->
  <rect
    x="0"
    y="0"
    width="100%"
    height="100%"
    fill="#043"
    stroke="none"
    mask="none"
  />
  <!-- <defs>
    <clipPath id="test-clip">
      <rect x="0" y="0" width="25%" height="75%" />
    </clipPath>
  </defs> -->
      <!-- maskUnits="objectBoundingBox" -->
      <!-- maskContentUnits="userSpaceOnUse" -->
  <!-- <defs>
    <mask
      id="myMask"
      
      maskUnits="userSpaceOnUse"

      maskContentUnits="objectBoundingBox"
    >
      <rect fill="white" x="0" y="0" width="100%" height="100%" />
    </mask>
  </defs> -->
      <!-- <rect    fill="black" x="4" y="4" width="4" height="10" />
      <polygon fill="black" points="0.5,0.2 0.68,0.74 0.21,0.41 0.79,0.41 0.32,0.74" /> -->
  <!-- Border -->
  <path
    d="
      M 1.5 2
      l 17 0
      l 0 16
      l -17 0
      Z
    "
    stroke="#9de"
  />
  <!-- B -->
  <path
    d="
      M 8.5 7
      l 0 -1
      l -5 0
      l 0 8
      l 5 0
      l 0 -1
      l -3 -3
      l -2 0
      l 2 0
      z
    "
  />
  <!-- 3 -->
  <path
    d="
      M 3.5 4
      l 7 0
      l 0 12
      l -7 0
      m 7 -6
      l -2 0
    "
  />
  <!-- 1 -->
  <path
    d="
      M 13.5 12
      l 0 4
      m -0 -3
      l -1 0
      m 0 3
      l 2 0
    "
  />
  <!-- 4 -->
  <path
    d="
      M 12.5 4
      l 0 6
      l 4 0
      m 0 -6
      l 0 12
    "
  />

  <defs>
    <linearGradient id="myGradient" gradientTransform="rotate(90)">
      <stop offset="5%"  stop-color="gold" />
      <stop offset="95%" stop-color="red" />
    </linearGradient>
  </defs>
</svg>